<svg width="65" height="66" viewBox="0 0 65 66" fill="none" xmlns="http://www.w3.org/2000/svg">
<g filter="url(#filter0_d_120_1083)">
<path d="M27.9203 52.0271C27.9214 52.0274 27.9224 52.0281 27.9232 52.029C27.9239 52.0299 27.9244 52.031 27.9244 52.0322C27.9269 52.0942 27.9311 52.1561 27.9315 52.2181V57.9693C27.9314 57.9711 27.9307 57.9727 27.9294 57.9739C27.8726 58.0138 27.825 57.9973 27.7803 57.9926C24.695 57.6711 21.6895 56.794 18.9022 55.4017C16.2968 54.1069 13.919 52.3786 11.8657 50.287C8.51922 46.8772 6.21171 42.8424 4.94312 38.1825C4.66612 37.1549 4.45 36.111 4.29597 35.0566C4.1924 34.3514 4.11699 33.6425 4.06976 32.9299C4.02212 32.2031 3.99312 31.4762 4.00141 30.7481C4.0119 29.8647 4.06217 28.9834 4.15221 28.1042C4.4649 25.0287 5.29513 22.0319 6.60612 19.2466C7.85535 16.5789 9.52495 14.1401 11.5479 12.0281C14.0773 9.36843 17.1146 7.27099 20.4703 5.86657C22.0067 5.2205 23.6001 4.72688 25.2286 4.39249C25.9656 4.24016 26.7076 4.12475 27.4534 4.02928C27.5627 4.01528 27.6734 4.00976 27.7815 4C27.7863 4.00652 27.7907 4.01332 27.7948 4.02037C27.7981 4.02631 27.8035 4.03267 27.8035 4.03904C27.8035 5.98184 27.8046 7.92507 27.8068 9.86873C27.8052 9.89999 27.802 9.93115 27.7972 9.96208C27.7973 9.96267 27.7972 9.96327 27.7971 9.96383C27.7969 9.9644 27.7966 9.96491 27.7962 9.96535C27.7958 9.9658 27.7953 9.96615 27.7948 9.96639C27.7943 9.96663 27.7937 9.96675 27.7931 9.96674C27.0168 10.076 26.2465 10.2266 25.4854 10.4178C24.7238 10.613 23.9734 10.8518 23.2379 11.1332C22.509 11.4126 21.7962 11.7342 21.103 12.0964C20.4024 12.462 19.723 12.8685 19.0679 13.3138C18.4156 13.7566 17.7886 14.2373 17.1899 14.7535C17.1977 14.773 17.199 14.781 17.204 14.7849C17.2097 14.7888 17.2166 14.7905 17.2234 14.79L43.7201 14.7925C43.7446 14.7925 43.769 14.7887 43.803 14.7857C43.8037 14.7857 43.8045 14.7856 43.8052 14.7852C43.8059 14.7849 43.8065 14.7844 43.807 14.7838C43.8075 14.7832 43.8078 14.7825 43.808 14.7817C43.8082 14.7809 43.8081 14.7801 43.8079 14.7793C43.7963 14.7212 43.7499 14.7021 43.718 14.6754C41.8272 13.0645 39.6706 11.8125 37.3498 10.9783C36.2633 10.5892 35.1473 10.293 34.013 10.0928C33.7959 10.0542 33.5768 10.027 33.3588 9.99305C33.3062 9.98499 33.2548 9.97099 33.206 9.96038C33.2049 9.96019 33.2038 9.95963 33.2031 9.95878C33.2023 9.95793 33.2019 9.95685 33.2018 9.95571C33.1811 9.66718 33.1861 4.24992 33.2076 4.01188C33.2078 4.01064 33.2084 4.0095 33.2093 4.00865C33.2102 4.0078 33.2114 4.0073 33.2126 4.00721C33.3192 4.00304 33.426 4.01015 33.5312 4.02843C34.0979 4.11032 34.666 4.18373 35.2298 4.28557C36.3563 4.48934 37.468 4.77145 38.5571 5.12996C41.6316 6.13264 44.4998 7.70618 47.0184 9.77198C49.9605 12.169 52.3696 15.1812 54.0847 18.6075C55.0969 20.617 55.8549 22.7504 56.3402 24.9562C56.5349 25.8385 56.6868 26.7281 56.7959 27.6251C56.9694 29.0561 57.0325 30.4989 56.9844 31.94C56.9628 32.6248 56.9111 33.3084 56.8386 33.9899C56.6642 35.6403 56.3396 37.2704 55.8691 38.8589C54.8749 42.2352 53.2419 45.3782 51.0632 48.109C48.7482 51.0334 45.8628 53.4308 42.5916 55.148C40.6857 56.1542 38.6657 56.9152 36.5775 57.4139C35.8119 57.5972 35.0403 57.7465 34.2628 57.8619C33.9898 57.9044 33.7151 57.9307 33.4413 57.9633C33.4054 57.9653 33.3694 57.9653 33.3336 57.9633C33.3323 57.9633 33.3312 57.9628 33.3303 57.9619C33.3294 57.9611 33.3288 57.9599 33.3286 57.9587C33.3212 57.9204 33.3165 57.8817 33.3145 57.8428C33.3145 55.9476 33.3145 54.0535 33.3145 52.1608C33.3145 52.0993 33.3017 52.0335 33.346 51.9813C33.3465 51.9807 33.3471 51.9802 33.3478 51.9798C33.3486 51.9795 33.3493 51.9792 33.3501 51.9792C33.418 51.9789 33.4857 51.9749 33.5531 51.9673C34.2752 51.8552 34.9912 51.7055 35.6984 51.5188C39.5431 50.4852 42.8312 48.49 45.5625 45.5334C47.7799 43.1343 49.3603 40.3524 50.3038 37.1875C50.6657 35.9712 50.9206 34.7241 51.0653 33.4612C51.076 33.3661 51.0806 33.2702 51.0881 33.176C51.0881 33.1749 51.0878 33.1737 51.0872 33.1728C51.0866 33.1718 51.0858 33.171 51.0847 33.1705C50.9994 33.1383 50.924 33.1531 50.8507 33.1527C48.8358 33.1527 46.821 33.1527 44.8064 33.1527C44.0883 33.1527 43.3702 33.1527 42.652 33.1527C42.594 33.1527 42.5356 33.1463 42.4772 33.1425C42.4761 33.1423 42.475 33.1418 42.4742 33.1409C42.4733 33.1401 42.4728 33.139 42.4726 33.1378C42.4681 33.1146 42.4649 33.0911 42.4631 33.0674C42.4631 31.8448 42.4631 30.6222 42.4631 29.3996C42.4659 29.3655 42.4716 29.3317 42.4801 29.2986C42.4804 29.2975 42.481 29.2964 42.4819 29.2956C42.4828 29.2949 42.4839 29.2944 42.4851 29.2944H49.672C49.9135 29.2944 50.155 29.2944 50.3966 29.2944C50.6381 29.2944 50.8739 29.3033 51.1258 29.2867C51.1271 29.2865 51.1284 29.2858 51.1293 29.2847C51.1302 29.2836 51.1307 29.2822 51.1307 29.2808C51.0112 27.6815 50.7105 26.1019 50.2346 24.5739C49.776 23.0849 49.1549 21.6537 48.3831 20.3073C48.3826 20.3066 48.3819 20.306 48.3811 20.3055C48.3803 20.3051 48.3794 20.3048 48.3785 20.3048H33.5772C33.5287 20.3048 33.4802 20.3023 33.4322 20.3048C33.3946 20.3096 33.3572 20.3164 33.3203 20.3252C33.3192 20.3255 33.3182 20.3262 33.3175 20.3271C33.3167 20.328 33.3163 20.3291 33.3162 20.3303V29.2409C33.3162 29.2477 33.3178 29.2544 33.3207 29.2604C33.328 29.27 33.3359 29.2791 33.3443 29.2876C33.4081 29.2876 33.4827 29.2931 33.5573 29.2931C34.6958 29.2931 35.8341 29.2931 36.9724 29.2931C37.0449 29.2931 37.1207 29.2766 37.2027 29.3122C37.2037 29.3126 37.2045 29.3133 37.2051 29.3142C37.2057 29.3151 37.206 29.3162 37.206 29.3173V29.5027C37.206 30.6625 37.206 31.8215 37.206 32.9796C37.206 33.0343 37.2023 33.089 37.2002 33.1438C37.2001 33.1451 37.1996 33.1462 37.1986 33.1471C37.1977 33.148 37.1965 33.1485 37.1953 33.1484L33.5527 33.151C33.4906 33.151 33.4284 33.151 33.3675 33.1544C33.353 33.1544 33.3398 33.1773 33.3261 33.19C33.3224 33.2749 33.3149 33.3598 33.3149 33.4446C33.3149 39.5344 33.3149 45.6243 33.3149 51.7144C33.3149 51.7853 33.3149 51.8557 33.3178 51.9266C33.3178 51.9448 33.3356 51.9622 33.3452 51.9796C31.5954 51.9796 29.8458 51.9796 28.0964 51.9796C28.0417 51.9796 27.9866 51.9741 27.9306 51.9711C27.9306 51.9567 27.9306 51.9427 27.9306 51.9287C27.9306 45.7603 27.9306 39.5918 27.9306 33.4234C27.9306 33.3602 27.9248 33.2961 27.9219 33.2337C27.9219 33.2104 27.9186 33.1866 27.9162 33.1574C27.9162 33.1567 27.916 33.1561 27.9158 33.1555C27.9155 33.1549 27.9151 33.1543 27.9147 33.1539C27.9142 33.1535 27.9137 33.1531 27.913 33.1529C27.9124 33.1527 27.9118 33.1526 27.9112 33.1527H24.2881C24.2052 33.1527 24.1261 33.1467 24.0453 33.1438C24.044 33.1437 24.0427 33.143 24.0418 33.142C24.0409 33.141 24.0404 33.1397 24.0404 33.1383C24.0404 31.9035 24.0404 30.6686 24.0404 29.4336C24.0404 29.4051 24.0404 29.3771 24.0428 29.3487C24.0427 29.3417 24.0438 29.3348 24.0462 29.3283C24.0491 29.322 24.0553 29.3177 24.0752 29.2978C24.1887 29.2897 24.3184 29.2952 24.448 29.2944C24.5777 29.2935 24.6966 29.2944 24.8209 29.2944H27.1601C27.2843 29.2944 27.4086 29.2944 27.5329 29.2944C27.6572 29.2944 27.789 29.302 27.917 29.2889C27.9181 29.2886 27.9191 29.288 27.9199 29.2872C27.9207 29.2864 27.9213 29.2853 27.9215 29.2842C27.9268 29.261 27.9304 29.2375 27.9323 29.2138C27.9323 26.2602 27.9311 23.3066 27.9286 20.3527C27.9287 20.3458 27.9268 20.339 27.9232 20.3332C27.9189 20.3277 27.9139 20.3228 27.9083 20.3188C27.6966 20.2984 12.7892 20.3006 12.6205 20.3213C12.6108 20.3314 12.6018 20.3422 12.5936 20.3536C12.5754 20.3833 12.558 20.4138 12.5406 20.4444C11.6194 22.0864 10.9183 23.848 10.4562 25.6817C10.2693 26.4198 10.1224 27.1679 10.0162 27.9226C9.95865 28.3346 9.92219 28.75 9.87869 29.1641C9.87455 29.2031 9.85839 29.249 9.89278 29.2808C9.89881 29.2853 9.90535 29.289 9.91225 29.2918C9.91899 29.2927 9.92581 29.2927 9.93255 29.2918H9.95326H17.1775L17.1982 29.2939C17.2049 29.294 17.2116 29.2951 17.2181 29.2973C17.2238 29.3013 17.2291 29.3058 17.2338 29.3109C17.2379 29.316 17.2454 29.3211 17.2458 29.3266C17.2492 29.3548 17.2511 29.3831 17.2516 29.4115C17.2516 30.6409 17.2516 31.8704 17.2516 33.1001C17.2521 33.1069 17.2508 33.1138 17.2479 33.12C17.245 33.126 17.2384 33.1302 17.2172 33.151H12.1047C11.4286 33.151 10.7519 33.151 10.0747 33.151C10.0233 33.151 9.96611 33.1306 9.91681 33.1828C9.91634 33.1842 9.91634 33.1857 9.91681 33.1871C9.92137 33.2524 9.92261 33.3224 9.93213 33.3912C9.98061 33.7476 10.027 34.1044 10.0817 34.46C10.2717 35.6804 10.5714 36.8803 10.977 38.0442C12.0473 41.1631 13.8201 43.9799 16.1516 46.2662C18.2353 48.3299 20.7221 49.9183 23.4483 50.9269C24.6604 51.3758 25.9104 51.7088 27.1824 51.9215C27.3448 51.9491 27.5101 51.961 27.6738 51.98L27.8031 52.0051L27.9203 52.0271Z" fill="white"/>
</g>
<defs>
<filter id="filter0_d_120_1083" x="0" y="0" width="65" height="66" filterUnits="userSpaceOnUse" color-interpolation-filters="sRGB">
<feFlood flood-opacity="0" result="BackgroundImageFix"/>
<feColorMatrix in="SourceAlpha" type="matrix" values="0 0 0 0 0 0 0 0 0 0 0 0 0 0 0 0 0 0 127 0" result="hardAlpha"/>
<feOffset dx="2" dy="2"/>
<feGaussianBlur stdDeviation="3"/>
<feComposite in2="hardAlpha" operator="out"/>
<feColorMatrix type="matrix" values="0 0 0 0 0 0 0 0 0 0 0 0 0 0 0 0 0 0 0.4 0"/>
<feBlend mode="normal" in2="BackgroundImageFix" result="effect1_dropShadow_120_1083"/>
<feBlend mode="normal" in="SourceGraphic" in2="effect1_dropShadow_120_1083" result="shape"/>
</filter>
</defs>
</svg>
